HIERARCHY
ROOT Hips
{
	OFFSET 0.000000 35.082581 0.000000
	CHANNELS 6 Xposition Yposition Zposition Xrotation Yrotation Zrotation 
	JOINT Spine
	{
		OFFSET 0.000000 6.876099 0.125700
		CHANNELS 3 Xrotation Yrotation Zrotation
		JOINT Spine1
		{
			OFFSET 0.000000 5.730043 0.104720
			CHANNELS 3 Xrotation Yrotation Zrotation
			JOINT Spine1_split
			{
				OFFSET 0.000000 5.730043 0.104720
				CHANNELS 3 Xrotation Yrotation Zrotation
				JOINT Spine2
				{
					OFFSET 0.000000 5.730043 0.104720
					CHANNELS 3 Xrotation Yrotation Zrotation
					JOINT Neck
					{
						OFFSET 0.000000 10.314075 0.188496
						CHANNELS 3 Xrotation Yrotation Zrotation
						JOINT Head
						{
							OFFSET 0.000000 7.643700 -2.377400
							CHANNELS 3 Xrotation Yrotation Zrotation
							JOINT HeadTop_End
							{
								OFFSET 0.000000 43.788605 -13.619600
								CHANNELS 3 Xrotation Yrotation Zrotation
								End Site
								{
									OFFSET 0.000000 0.000000 0.000000
								}
							}
						}
					}
					JOINT LeftShoulder
					{
						OFFSET 2.196100 4.412489 0.087492
						CHANNELS 3 Xrotation Yrotation Zrotation
						JOINT LeftShoulder_split
						{
							OFFSET 2.196100 4.412489 0.087492
							CHANNELS 3 Xrotation Yrotation Zrotation
							JOINT LeftArm
							{
								OFFSET 8.771219 -2.981674 -0.026999
								CHANNELS 3 Xrotation Yrotation Zrotation
								JOINT LeftForeArm
								{
									OFFSET 8.512804 0.000000 -0.000000
									CHANNELS 3 Xrotation Yrotation Zrotation
									JOINT LeftHand
									{
										OFFSET 18.484802 0.000000 -0.000000
										CHANNELS 3 Xrotation Yrotation Zrotation
										JOINT LeftHandThumb1
										{
											OFFSET 2.499420 -1.158070 2.653252
											CHANNELS 3 Xrotation Yrotation Zrotation
											JOINT LeftHandThumb2
											{
												OFFSET 2.370079 -1.368366 1.368366
												CHANNELS 3 Xrotation Yrotation Zrotation
												JOINT LeftHandThumb3
												{
													OFFSET 2.676727 -1.545410 1.545409
													CHANNELS 3 Xrotation Yrotation Zrotation
													JOINT LeftHandThumb4
													{
														OFFSET 1.692226 -0.977005 0.977007
														CHANNELS 3 Xrotation Yrotation Zrotation
														End Site
														{
															OFFSET 0.000000 0.000000 0.000000
														}
													}
												}
											}
										}
										JOINT LeftHandIndex1
										{
											OFFSET 7.924831 -0.457527 2.345128
											CHANNELS 3 Xrotation Yrotation Zrotation
											JOINT LeftHandIndex2
											{
												OFFSET 3.643303 0.000000 0.000000
												CHANNELS 3 Xrotation Yrotation Zrotation
												JOINT LeftHandIndex3
												{
													OFFSET 3.810799 0.000000 0.000000
													CHANNELS 3 Xrotation Yrotation Zrotation
													JOINT LeftHandIndex4
													{
														OFFSET 2.403702 0.000000 0.000000
														CHANNELS 3 Xrotation Yrotation Zrotation
														End Site
														{
															OFFSET 0.000000 0.000000 0.000000
														}
													}
												}
											}
										}
										JOINT LeftHandMiddle1
										{
											OFFSET 8.563995 0.000000 -0.000000
											CHANNELS 3 Xrotation Yrotation Zrotation
											JOINT LeftHandMiddle2
											{
												OFFSET 3.861618 0.000000 0.000000
												CHANNELS 3 Xrotation Yrotation Zrotation
												JOINT LeftHandMiddle3
												{
													OFFSET 3.701603 0.000000 0.000000
													CHANNELS 3 Xrotation Yrotation Zrotation
													JOINT LeftHandMiddle4
													{
														OFFSET 2.322544 0.000000 0.000000
														CHANNELS 3 Xrotation Yrotation Zrotation
														End Site
														{
															OFFSET 0.000000 0.000000 0.000000
														}
													}
												}
											}
										}
										JOINT LeftHandRing1
										{
											OFFSET 8.426460 -0.424637 -3.286992
											CHANNELS 3 Xrotation Yrotation Zrotation
											JOINT LeftHandRing2
											{
												OFFSET 3.126408 0.000000 0.000000
												CHANNELS 3 Xrotation Yrotation Zrotation
												JOINT LeftHandRing3
												{
													OFFSET 3.085026 0.000000 0.000000
													CHANNELS 3 Xrotation Yrotation Zrotation
													JOINT LeftHandRing4
													{
														OFFSET 1.644005 0.000000 0.000000
														CHANNELS 3 Xrotation Yrotation Zrotation
														End Site
														{
															OFFSET 0.000000 0.000000 0.000000
														}
													}
												}
											}
										}
									}
								}
							}
						}
					}
					JOINT RightShoulder
					{
						OFFSET -2.196100 4.412496 0.070690
						CHANNELS 3 Xrotation Yrotation Zrotation
						JOINT RightShoulder_split
						{
							OFFSET -2.196100 4.412496 0.070690
							CHANNELS 3 Xrotation Yrotation Zrotation
							JOINT RightArm
							{
								OFFSET -8.771282 -2.981682 -0.094208
								CHANNELS 3 Xrotation Yrotation Zrotation
								JOINT RightForeArm
								{
									OFFSET -8.494598 0.000000 0.000000
									CHANNELS 3 Xrotation Yrotation Zrotation
									JOINT RightHand
									{
										OFFSET -18.483803 0.000000 0.000001
										CHANNELS 3 Xrotation Yrotation Zrotation
										JOINT RightHandThumb1
										{
											OFFSET -2.527351 -1.008072 2.575253
											CHANNELS 3 Xrotation Yrotation Zrotation
											JOINT RightHandThumb2
											{
												OFFSET -2.321518 -1.340328 1.340329
												CHANNELS 3 Xrotation Yrotation Zrotation
												JOINT RightHandThumb3
												{
													OFFSET -2.657753 -1.534454 1.534455
													CHANNELS 3 Xrotation Yrotation Zrotation
													JOINT RightHandThumb4
													{
														OFFSET -1.807510 -1.043568 1.043567
														CHANNELS 3 Xrotation Yrotation Zrotation
														End Site
														{
															OFFSET 0.000000 0.000000 0.000000
														}
													}
												}
											}
										}
										JOINT RightHandIndex1
										{
											OFFSET -8.811420 0.015533 2.887987
											CHANNELS 3 Xrotation Yrotation Zrotation
											JOINT RightHandIndex2
											{
												OFFSET -3.537502 0.000000 0.000000
												CHANNELS 3 Xrotation Yrotation Zrotation
												JOINT RightHandIndex3
												{
													OFFSET -3.356201 0.000000 0.000000
													CHANNELS 3 Xrotation Yrotation Zrotation
													JOINT RightHandIndex4
													{
														OFFSET -1.933098 0.000000 0.000000
														CHANNELS 3 Xrotation Yrotation Zrotation
														End Site
														{
															OFFSET 0.000000 0.000000 0.000000
														}
													}
												}
											}
										}
										JOINT RightHandMiddle1
										{
											OFFSET -8.178135 0.000000 0.000000
											CHANNELS 3 Xrotation Yrotation Zrotation
											JOINT RightHandMiddle2
											{
												OFFSET -3.901302 0.000000 0.000000
												CHANNELS 3 Xrotation Yrotation Zrotation
												JOINT RightHandMiddle3
												{
													OFFSET -3.909599 0.000000 0.000000
													CHANNELS 3 Xrotation Yrotation Zrotation
													JOINT RightHandMiddle4
													{
														OFFSET -2.376003 0.000000 0.000000
														CHANNELS 3 Xrotation Yrotation Zrotation
														End Site
														{
															OFFSET 0.000000 0.000000 0.000000
														}
													}
												}
											}
										}
										JOINT RightHandRing1
										{
											OFFSET -7.559013 0.014137 -2.865403
											CHANNELS 3 Xrotation Yrotation Zrotation
											JOINT RightHandRing2
											{
												OFFSET -3.449306 0.000000 0.000000
												CHANNELS 3 Xrotation Yrotation Zrotation
												JOINT RightHandRing3
												{
													OFFSET -3.362106 0.000000 0.000000
													CHANNELS 3 Xrotation Yrotation Zrotation
													JOINT RightHandRing4
													{
														OFFSET -2.076401 0.000000 0.000000
														CHANNELS 3 Xrotation Yrotation Zrotation
														End Site
														{
															OFFSET 0.000000 0.000000 0.000000
														}
													}
												}
											}
										}
									}
								}
							}
						}
					}
				}
			}
		}
	}
	JOINT LeftUpLeg
	{
		OFFSET 10.205400 -3.823500 0.155100
		CHANNELS 3 Xrotation Yrotation Zrotation
		JOINT LeftLeg
		{
			OFFSET 0.708757 -12.982077 0.567790
			CHANNELS 3 Xrotation Yrotation Zrotation
			JOINT LeftFoot
			{
				OFFSET -0.708756 -10.717838 -2.184338
				CHANNELS 3 Xrotation Yrotation Zrotation
				JOINT LeftToeBase
				{
					OFFSET 0.108149 -7.191104 7.560241
					CHANNELS 3 Xrotation Yrotation Zrotation
					JOINT LeftToe_End
					{
						OFFSET 0.070230 0.081724 4.490308
						CHANNELS 3 Xrotation Yrotation Zrotation
						End Site
						{
							OFFSET 0.000000 0.000000 0.000000
						}
					}
				}
			}
		}
	}
	JOINT RightUpLeg
	{
		OFFSET -10.205400 -3.823500 0.005500
		CHANNELS 3 Xrotation Yrotation Zrotation
		JOINT RightLeg
		{
			OFFSET -0.708756 -12.982134 0.610632
			CHANNELS 3 Xrotation Yrotation Zrotation
			JOINT RightFoot
			{
				OFFSET 0.708754 -10.717769 -1.945823
				CHANNELS 3 Xrotation Yrotation Zrotation
				JOINT RightToeBase
				{
					OFFSET -0.108140 -7.191069 7.372968
					CHANNELS 3 Xrotation Yrotation Zrotation
					JOINT RightToe_End
					{
						OFFSET -0.070227 0.081735 4.479403
						CHANNELS 3 Xrotation Yrotation Zrotation
						End Site
						{
							OFFSET 0.000000 0.000000 0.000000
						}
					}
				}
			}
		}
	}
}
MOTION
Frames: 4
Frame Time: 0.016667
0.131251 33.229843 -1.240266 -2.729888 3.552829 0.820228 -0.565995 -0.749007 -3.950067 1.149531 -0.103991 1.499582 0.000000 0.000000 0.000000 1.152620 -0.098085 1.497724 8.457852 0.270831 0.379498 -3.010869 1.242465 1.518414 -0.000000 -0.000000 -0.000000 6.883867 -26.760628 -3.764297 0.000000 0.000000 0.000000 5.911083 4.517224 -79.896363 -0.000028 -18.872940 -0.000009 -18.698661 1.922932 7.511051 -1.708924 11.916039 7.382938 4.613906 16.205069 1.361370 0.155756 9.814992 3.327214 -0.000000 0.000001 -0.000000 0.412185 2.350822 -19.887619 0.808843 3.242975 -28.002737 0.188712 1.604152 -13.418392 0.000000 0.000000 0.000003 0.585496 2.783223 -23.755709 0.716283 3.062841 -26.319948 0.695392 3.020281 -25.926015 0.000000 0.000001 -0.000001 0.650660 2.926635 -25.063985 1.383118 4.144251 -36.899052 1.265553 3.983260 -35.240180 -0.000000 0.000001 -0.000000 0.447593 -3.990813 8.744679 0.000000 0.000000 0.000000 8.902111 19.263671 69.814082 0.000005 13.419894 -0.000024 -28.538475 -11.177668 5.826649 -2.036776 -12.208773 -7.947291 5.412872 -17.299273 -0.815939 -0.502641 -8.507751 -2.994138 -0.000000 0.000000 0.000003 0.402313 -2.335084 19.548587 0.985294 -3.573158 30.823462 0.485058 -2.555978 21.487586 0.000000 -0.000000 0.000001 0.542480 -2.697155 22.740625 1.054149 -3.685874 31.911101 1.039761 -3.662706 31.686532 -0.000000 -0.000000 -0.000000 0.533150 -2.674801 22.541424 1.506296 -4.326606 38.375848 0.751391 -3.148922 26.835424 0.000001 0.000000 0.000000 -6.156415 10.646420 7.884066 27.815771 -5.196513 -0.685824 -19.276218 1.550732 -4.442829 -0.000075 0.000001 0.000003 0.000000 0.000000 0.000000 8.070104 -4.783912 -4.400308 21.143102 -7.487831 6.180904 -24.923381 -20.216142 2.044639 -0.007143 0.000004 0.000000 0.000000 0.000001 0.000000 
0.129570 33.228901 -1.234871 -2.716190 3.541222 0.815646 -0.565148 -0.753553 -3.950896 1.145594 -0.104598 1.502204 0.000000 0.000000 0.000000 1.148703 -0.098714 1.500344 8.441300 0.281180 0.369448 -3.009799 1.286436 1.518969 -0.000000 -0.000000 0.000000 6.880130 -26.751013 -3.764937 0.000000 0.000000 0.000000 5.911932 4.505761 -79.903596 0.000011 -18.867747 0.000010 -18.716279 1.935621 7.508157 -1.708922 11.916039 7.382939 4.613907 16.205064 1.361372 0.155757 9.814995 3.327214 -0.000001 -0.000003 -0.000002 0.412530 2.351745 -19.895757 0.808922 3.243122 -28.004158 0.188774 1.604395 -13.420403 0.000000 -0.000000 -0.000001 0.585819 2.783938 -23.762221 0.716452 3.063196 -26.323214 0.695486 3.020462 -25.927598 0.000000 0.000000 0.000001 0.650928 2.927206 -25.069262 1.383315 4.144494 -36.901548 1.265628 3.983360 -35.241235 -0.000000 0.000000 0.000000 0.447802 -3.989250 8.743130 0.000000 0.000000 0.000000 8.906558 19.272813 69.810305 0.000001 13.433806 -0.000003 -28.531140 -11.162477 5.826439 -2.036784 -12.208768 -7.947285 5.412871 -17.299288 -0.815954 -0.502642 -8.507754 -2.994140 0.000001 -0.000000 0.000001 0.402911 -2.336777 19.563322 0.985630 -3.573726 30.828919 0.485201 -2.556336 21.490748 -0.000000 -0.000000 0.000001 0.543003 -2.698401 22.751442 1.054452 -3.686373 31.915903 1.039932 -3.662992 31.689226 0.000000 0.000000 -0.000000 0.533438 -2.675528 22.547836 1.506569 -4.326940 38.379321 0.751424 -3.148995 26.836018 0.000001 -0.000000 -0.000000 -6.155467 10.648962 7.894421 27.819748 -5.191310 -0.687527 -19.294794 1.554108 -4.451091 -0.000071 -0.000003 -0.000001 0.000000 0.000001 0.000000 8.066879 -4.784492 -4.396952 21.135561 -7.488216 6.186466 -24.927624 -20.202270 2.040439 -0.007438 0.000006 0.000003 0.000000 -0.000001 -0.000000 
0.127717 33.227997 -1.229262 -2.703355 3.530143 0.810660 -0.563353 -0.760207 -3.951819 1.142372 -0.105477 1.505870 0.000000 0.000000 0.000000 1.145512 -0.099612 1.504006 8.426181 0.289926 0.361756 -3.008403 1.323638 1.520888 -0.000000 -0.000001 0.000000 6.876196 -26.741162 -3.765905 0.000000 0.000000 0.000000 5.916038 4.497541 -79.909785 -0.000013 -18.862139 0.000012 -18.729885 1.945442 7.506012 -1.708922 11.916040 7.382937 4.613908 16.205069 1.361370 0.155755 9.814990 3.327212 -0.000001 -0.000002 -0.000000 0.412729 2.352312 -19.900796 0.808945 3.243159 -28.004486 0.188815 1.604540 -13.421644 0.000000 -0.000000 -0.000002 0.586075 2.784502 -23.767344 0.716589 3.063469 -26.325806 0.695531 3.020594 -25.928860 0.000000 0.000001 0.000000 0.651245 2.927894 -25.075528 1.383531 4.144782 -36.904523 1.265715 3.983488 -35.242554 0.000000 -0.000000 0.000000 0.447137 -3.992706 8.741788 0.000000 0.000000 0.000000 8.916826 19.279792 69.800804 -0.000005 13.450146 0.000007 -28.539973 -11.159951 5.821345 -2.036792 -12.208767 -7.947314 5.412883 -17.299365 -0.815928 -0.502644 -8.507751 -2.994139 0.000002 0.000000 -0.000000 0.403546 -2.338558 19.578853 0.985985 -3.574340 30.834845 0.485360 -2.556737 21.494151 0.000000 -0.000000 -0.000001 0.543641 -2.699943 22.764351 1.054837 -3.686973 31.921746 1.040139 -3.663312 31.692392 0.000001 -0.000000 0.000000 0.533903 -2.676642 22.557840 1.506964 -4.327448 38.384628 0.751612 -3.149358 26.839408 0.000000 0.000000 -0.000000 -6.153718 10.652337 7.906274 27.824003 -5.187604 -0.689776 -19.313835 1.557506 -4.459186 -0.000022 -0.000002 -0.000000 0.000000 0.000001 -0.000000 8.067620 -4.784731 -4.391423 21.123740 -7.489078 6.190606 -24.930841 -20.190177 2.036095 -0.008576 0.000008 -0.000003 0.000000 -0.000002 -0.000000 
0.125799 33.227146 -1.223451 -2.692066 3.519965 0.805913 -0.561042 -0.768546 -3.953061 1.140142 -0.106575 1.510630 0.000000 0.000000 0.000000 1.143316 -0.100721 1.508752 8.412553 0.297273 0.355596 -3.006517 1.354629 1.523625 -0.000000 -0.000000 -0.000000 6.872119 -26.731035 -3.767442 0.000000 0.000000 0.000000 5.921135 4.490981 -79.912803 0.000002 -18.857087 0.000006 -18.728869 1.952518 7.499014 -1.708923 11.916043 7.382939 4.613905 16.205063 1.361369 0.155755 9.814988 3.327212 -0.000001 -0.000001 -0.000001 0.412742 2.352366 -19.901225 0.808870 3.243038 -28.003361 0.188821 1.604554 -13.421796 -0.000000 0.000001 0.000004 0.586188 2.784808 -23.770107 0.716671 3.063630 -26.327222 0.695577 3.020667 -25.929575 -0.000000 0.000000 0.000002 0.651575 2.928632 -25.082261 1.383754 4.145092 -36.907781 1.265827 3.983631 -35.243978 -0.000000 -0.000000 0.000000 0.445815 -3.999971 8.740794 0.000000 0.000000 0.000000 8.930339 19.284686 69.787403 -0.000004 13.466609 0.000010 -28.561271 -11.168559 5.813755 -2.036768 -12.208784 -7.947277 5.412875 -17.299525 -0.815987 -0.502643 -8.507749 -2.994138 -0.000000 -0.000003 -0.000001 0.404192 -2.340364 19.594588 0.986388 -3.574984 30.840992 0.485520 -2.557136 21.497790 0.000000 -0.000000 0.000001 0.544404 -2.701699 22.778708 1.055262 -3.687661 31.928430 1.040362 -3.663677 31.695950 -0.000001 0.000000 -0.000000 0.534523 -2.678065 22.570517 1.507445 -4.328076 38.391278 0.751847 -3.149823 26.843596 0.000000 0.000000 0.000000 -6.149327 10.655839 7.917583 27.826503 -5.184283 -0.691198 -19.332227 1.561002 -4.467750 -0.000047 0.000006 -0.000003 0.000000 0.000000 -0.000000 8.073115 -4.785366 -4.384092 21.108481 -7.490832 6.193683 -24.934024 -20.180159 2.031471 -0.011499 -0.000003 0.000001 0.000000 -0.000001 -0.000000 
